<svg xmlns="http://www.w3.org/2000/svg" xmlns:xlink="http://www.w3.org/1999/xlink" viewBox="0 0 320 180"><defs><style>.cls-1{fill:none;}.cls-2{fill:#222;}.cls-3{opacity:0.05;}.cls-4{fill:#fff;}.cls-5{clip-path:url(#clip-path);}</style><clipPath id="clip-path"><circle class="cls-1" cx="160" cy="90" r="54.86"/></clipPath></defs><title>placeholder_16x9</title><g id="Ebene_2" data-name="Ebene 2"><rect class="cls-2" x="-0.5" y="-0.5" width="320.5" height="180.5"/><g class="cls-3"><circle class="cls-4" cx="160" cy="90" r="54.86"/><g class="cls-5"><path d="M115,56.58l45.76,25s-16.32,42.34-56,9.71S115,56.58,115,56.58Z"/><path d="M216,89.45,176.32,85s-6.1,41.41,34,31.19C251,105.77,216,89.45,216,89.45Z"/><path class="cls-4" d="M108.77,68.32l43.84,20.3s-17.55,25.46-47.47-3.24S108.77,68.32,108.77,68.32Z"/><path class="cls-4" d="M215.54,99l-34.9-2s1.83,25.23,31.19,14.81S215.54,99,215.54,99Z"/><circle cx="196.91" cy="98.62" r="6.51"/><circle cx="129.17" cy="80.97" r="6.51"/></g></g></g></svg>